# xmcd
#
# Track frame offsets:
#	150
#	13105
#	32317
#	46801
#	63152
#	73426
#	97051
#	111960
#	129501
#	143250
#	160643
#	174168
#
# Disc length: 2479 seconds
#
# Revision: 2
# Processed by: cddbd v1.4PL0 Copyright (c) Steve Scherf et al.
# Submitted via: EZCDDA 4.3.2
#
DISCID=9409ad0c
DTITLE=La Mississippi - Cara y ceca
DYEAR=1900
DGENRE=
TTITLE0=Vamo y vamo
TTITLE1=San Cayetano
TTITLE2=Niño bien
TTITLE3=Celda gris
TTITLE4=Taxi Taxi
TTITLE5=Blues al anochecer
TTITLE6=La danza de la lluvia
TTITLE7=Obrero de amor
TTITLE8=Reina de corazón
TTITLE9=Hotel la Gallega
TTITLE10=Jazz y caipirinha
TTITLE11=Buenas noches
EXTD=
EXTT0=
EXTT1=
EXTT2=
EXTT3=
EXTT4=
EXTT5=
EXTT6=
EXTT7=
EXTT8=
EXTT9=
EXTT10=
EXTT11=
PLAYORDER=
